<mxfile host="65bd71144e">
    <diagram id="QE2iGHCM4OtWqHqvRpzI" name="Page-1">
        <mxGraphModel dx="783" dy="660" grid="1" gridSize="10" guides="1" tooltips="1" connect="1" arrows="1" fold="1" page="1" pageScale="1" pageWidth="10000" pageHeight="5000" math="0" shadow="0">
            <root>
                <mxCell id="0"/>
                <mxCell id="1" parent="0"/>
                <mxCell id="2" value="" style="ellipse;html=1;shape=startState;fillColor=#000000;strokeColor=#ff0000;" parent="1" vertex="1">
                    <mxGeometry x="170" y="460" width="30" height="30" as="geometry"/>
                </mxCell>
                <mxCell id="3" value="" style="edgeStyle=orthogonalEdgeStyle;html=1;verticalAlign=bottom;endArrow=open;endSize=8;strokeColor=#ff0000;" parent="1" source="2" edge="1">
                    <mxGeometry relative="1" as="geometry">
                        <mxPoint x="250" y="475" as="targetPoint"/>
                    </mxGeometry>
                </mxCell>
                <mxCell id="24" style="edgeStyle=none;html=1;entryX=0;entryY=0;entryDx=0;entryDy=0;" parent="1" source="4" target="13" edge="1">
                    <mxGeometry relative="1" as="geometry"/>
                </mxCell>
                <mxCell id="25" style="edgeStyle=none;html=1;entryX=0;entryY=0;entryDx=0;entryDy=0;fillColor=#a20025;strokeColor=#6F0000;" parent="1" source="4" target="17" edge="1">
                    <mxGeometry relative="1" as="geometry"/>
                </mxCell>
                <mxCell id="4" value="" style="shape=line;html=1;strokeWidth=6;strokeColor=#ff0000;direction=north;" parent="1" vertex="1">
                    <mxGeometry x="250" y="375" width="10" height="200" as="geometry"/>
                </mxCell>
                <mxCell id="12" value="ScreenRefreshEntry" style="swimlane;fontStyle=1;align=center;verticalAlign=middle;childLayout=stackLayout;horizontal=1;startSize=30;horizontalStack=0;resizeParent=0;resizeLast=1;container=0;fontColor=#000000;collapsible=0;rounded=1;arcSize=30;strokeColor=#ff0000;fillColor=#ffffc0;swimlaneFillColor=#ffffc0;dropTarget=0;" parent="1" vertex="1">
                    <mxGeometry x="310" y="400" width="160" height="60" as="geometry"/>
                </mxCell>
                <mxCell id="13" value="屏幕刷新任务" style="text;html=1;strokeColor=none;fillColor=none;align=center;verticalAlign=middle;spacingLeft=4;spacingRight=4;whiteSpace=wrap;overflow=hidden;rotatable=0;fontColor=#000000;" parent="12" vertex="1">
                    <mxGeometry y="30" width="160" height="30" as="geometry"/>
                </mxCell>
                <mxCell id="48" style="edgeStyle=none;html=1;fillColor=#a20025;strokeColor=#6F0000;exitX=1;exitY=0;exitDx=0;exitDy=0;" edge="1" parent="1" source="17" target="46">
                    <mxGeometry relative="1" as="geometry"/>
                </mxCell>
                <mxCell id="16" value="SensorHandleEntry" style="swimlane;fontStyle=1;align=center;verticalAlign=middle;childLayout=stackLayout;horizontal=1;startSize=30;horizontalStack=0;resizeParent=0;resizeLast=1;container=0;fontColor=#000000;collapsible=0;rounded=1;arcSize=30;strokeColor=#ff0000;fillColor=#ffffc0;swimlaneFillColor=#ffffc0;dropTarget=0;" parent="1" vertex="1">
                    <mxGeometry x="310" y="490" width="160" height="60" as="geometry"/>
                </mxCell>
                <mxCell id="17" value="传感器采集任务" style="text;html=1;strokeColor=none;fillColor=none;align=center;verticalAlign=middle;spacingLeft=4;spacingRight=4;whiteSpace=wrap;overflow=hidden;rotatable=0;fontColor=#000000;" parent="16" vertex="1">
                    <mxGeometry y="30" width="160" height="30" as="geometry"/>
                </mxCell>
                <mxCell id="27" value="HAL_TIM_PeriodElapsedCallback" style="swimlane;fontStyle=1;align=center;verticalAlign=middle;childLayout=stackLayout;horizontal=1;startSize=30;horizontalStack=0;resizeParent=0;resizeLast=1;container=0;fontColor=#000000;collapsible=0;rounded=1;arcSize=30;strokeColor=#ff0000;fillColor=#ffffc0;swimlaneFillColor=#ffffc0;dropTarget=0;" parent="1" vertex="1">
                    <mxGeometry x="280" y="150" width="220" height="160" as="geometry"/>
                </mxCell>
                <mxCell id="28" value="定时器中断回调，执行定时任务：&lt;br&gt;* 处理按键任务&lt;br&gt;* 获取传感器数据（发送消息）&lt;br&gt;* 电机速度环PID*5&lt;br&gt;* 电机位置环PID*5&lt;br&gt;* 车体姿态环PID*1&lt;br&gt;* 世界坐标系轴向PID*2" style="text;html=1;strokeColor=none;fillColor=none;align=left;verticalAlign=middle;spacingLeft=4;spacingRight=4;whiteSpace=wrap;overflow=hidden;rotatable=0;fontColor=#000000;" parent="27" vertex="1">
                    <mxGeometry y="30" width="220" height="130" as="geometry"/>
                </mxCell>
                <mxCell id="30" style="edgeStyle=none;html=1;entryX=0;entryY=0;entryDx=0;entryDy=0;fillColor=#a20025;strokeColor=#6F0000;" edge="1" parent="1">
                    <mxGeometry relative="1" as="geometry">
                        <mxPoint x="260" y="470.909090909091" as="sourcePoint"/>
                        <mxPoint x="310" y="430" as="targetPoint"/>
                    </mxGeometry>
                </mxCell>
                <mxCell id="58" style="edgeStyle=none;curved=1;html=1;entryX=0;entryY=0.5;entryDx=0;entryDy=0;strokeColor=#6F0000;fillColor=#a20025;" edge="1" parent="1" source="46" target="55">
                    <mxGeometry relative="1" as="geometry"/>
                </mxCell>
                <mxCell id="46" value="" style="shape=line;html=1;strokeWidth=6;strokeColor=#ff0000;direction=north;" vertex="1" parent="1">
                    <mxGeometry x="530" y="375" width="10" height="200" as="geometry"/>
                </mxCell>
                <mxCell id="47" style="edgeStyle=none;html=1;fillColor=#a20025;strokeColor=#6F0000;exitX=1;exitY=0;exitDx=0;exitDy=0;" edge="1" parent="1" source="13" target="46">
                    <mxGeometry relative="1" as="geometry"/>
                </mxCell>
                <mxCell id="53" style="edgeStyle=none;curved=1;html=1;strokeColor=#6F0000;exitX=0;exitY=0.25;exitDx=0;exitDy=0;fillColor=#a20025;" edge="1" parent="1" source="28">
                    <mxGeometry relative="1" as="geometry">
                        <mxPoint x="250" y="470" as="targetPoint"/>
                        <Array as="points">
                            <mxPoint x="150" y="320"/>
                        </Array>
                    </mxGeometry>
                </mxCell>
                <mxCell id="54" value="&lt;font color=&quot;#000000&quot;&gt;中断返回&lt;/font&gt;" style="edgeLabel;html=1;align=center;verticalAlign=middle;resizable=0;points=[];" vertex="1" connectable="0" parent="53">
                    <mxGeometry x="-0.2826" y="38" relative="1" as="geometry">
                        <mxPoint as="offset"/>
                    </mxGeometry>
                </mxCell>
                <mxCell id="59" style="edgeStyle=none;curved=1;html=1;entryX=1;entryY=0.25;entryDx=0;entryDy=0;strokeColor=#6F0000;fillColor=#a20025;" edge="1" parent="1" source="55" target="28">
                    <mxGeometry relative="1" as="geometry">
                        <Array as="points">
                            <mxPoint x="670" y="210"/>
                        </Array>
                    </mxGeometry>
                </mxCell>
                <mxCell id="60" value="&lt;font color=&quot;#000000&quot;&gt;是&lt;/font&gt;" style="edgeLabel;html=1;align=center;verticalAlign=middle;resizable=0;points=[];" vertex="1" connectable="0" parent="59">
                    <mxGeometry x="-0.1406" y="37" relative="1" as="geometry">
                        <mxPoint as="offset"/>
                    </mxGeometry>
                </mxCell>
                <mxCell id="61" style="edgeStyle=none;curved=1;html=1;strokeColor=#6F0000;fontColor=#000000;entryX=0;entryY=0.5;entryDx=0;entryDy=0;entryPerimeter=0;fillColor=#a20025;" edge="1" parent="1" source="55" target="4">
                    <mxGeometry relative="1" as="geometry">
                        <mxPoint x="260" y="475" as="targetPoint"/>
                        <Array as="points">
                            <mxPoint x="630" y="600"/>
                            <mxPoint x="490" y="680"/>
                            <mxPoint x="320" y="660"/>
                        </Array>
                    </mxGeometry>
                </mxCell>
                <mxCell id="62" value="否" style="edgeLabel;html=1;align=center;verticalAlign=middle;resizable=0;points=[];fontColor=#000000;" vertex="1" connectable="0" parent="61">
                    <mxGeometry x="-0.2227" relative="1" as="geometry">
                        <mxPoint as="offset"/>
                    </mxGeometry>
                </mxCell>
                <mxCell id="55" value="&lt;font color=&quot;#000000&quot;&gt;中断是否触发&lt;/font&gt;" style="rhombus;whiteSpace=wrap;html=1;fillColor=#ffffc0;strokeColor=#ff0000;" vertex="1" parent="1">
                    <mxGeometry x="630" y="447.5" width="90" height="55" as="geometry"/>
                </mxCell>
            </root>
        </mxGraphModel>
    </diagram>
</mxfile>